# xmcd
#
# Track frame offsets:
#	183
#	16230
#	31985
#	45040
#	56455
#	66735
#	78830
#	91670
#	103278
#	113353
#	125140
#	135553
#	146608
#	157673
#	172118
#	184950
#	197955
#	208635
#	215663
#	228485
#
# Disc length: 3322 seconds
#
# Revision: 3
# Processed by: cddbd v1.5PL3 Copyright (c) Steve Scherf et al.
# Submitted via: MusicManager 7.0.4.0 
#
DISCID=160cf814
DTITLE=Various Artist - The Country Collection
DYEAR=1987
DGENRE=
TTITLE0=Billy Joe Spears - Blanket On The Ground
TTITLE1=Gene Parsons - Way Out There
TTITLE2=Freddie Fender - Silver Wings
TTITLE3=Patsy Clin - Just Out Of Reach
TTITLE4=Faron Young - Hello Walls
TTITLE5=Conway Twitty - You Made Me What I Am
TTITLE6=Oakridge Boys - You'll Never Walk Alone
TTITLE7=George Jones - I Can't Change Overnight
TTITLE8=Dolly Parton - Release Me
TTITLE9=Willie Nelson - Is There Something On Your Mind
TTITLE10=Carl Perkin - Daddy Sang Bass
TTITLE11=Donna Fargo - All That's Keeping Me Alive
TTITLE12=Stonewall Jackson - Let The Sun Shine On The People
TTITLE13=Kelvin Henderson - Help Me Make It Through The Night
TTITLE14=Johnny Paycheck - Georgia In A Jug
TTITLE15=Nashville Wes - By The Time I Get To Phoenix
TTITLE16=Ferlin Husky - Wings Of A Dove
TTITLE17=Waylon Jennings - It's So Easy
TTITLE18=Johnny Cash - Folsom Prison Blues
TTITLE19=Gramme Parsons and Emmy Lou Harris - Love Hurts
EXTD=
EXTT0=
EXTT1=
EXTT2=
EXTT3=
EXTT4=
EXTT5=
EXTT6=
EXTT7=
EXTT8=
EXTT9=
EXTT10=
EXTT11=
EXTT12=
EXTT13=
EXTT14=
EXTT15=
EXTT16=
EXTT17=
EXTT18=
EXTT19=
PLAYORDER=
